# xmcd
#
# Track frame offsets: 
#        150
#        19761
#        32787
#        49119
#        65552
#        81163
#        105546
#        123649
#        140215
#        157897
#        176287
#        194987
#        214576
#
# Disc length: 3167 seconds
#
# Revision: 0
# Processed by: cddbd v1.5.2PL0 Copyright (c) Steve Scherf et al.
# Submitted via: ExactAudioCopy v0.99pb3
#
DISCID=bb0c5d0d
DTITLE=Various Artist - Songs Of Hope
DYEAR=2007
DGENRE=Pop
TTITLE0=Kenny Loggins - It's About Time
TTITLE1=Earth, Wind and Fire - Shining Star
TTITLE2=Olivia Newton John - Stronger Than Before
TTITLE3=The Beach Boys - Good Vibrations
TTITLE4=Lindsay Lohan - Beautiful Life
TTITLE5=David Pack - Biggest Part Of Me
TTITLE6=Birtles Shorrock Goble - Help Is On Its Way
TTITLE7=Carly Simon - Nobody Does It Better
TTITLE8=Courtney Now - It's Okay
TTITLE9=Amy Holland - Miracle River
TTITLE10=Marilyn McCoo - Safe
TTITLE11=All-4-One - I Swear
TTITLE12=Courtney Now - You've Got A Friend
EXTD=
EXTT0=
EXTT1=
EXTT2=
EXTT3=
EXTT4=
EXTT5=
EXTT6=
EXTT7=
EXTT8=
EXTT9=
EXTT10=
EXTT11=
EXTT12=
PLAYORDER=
